<svg width="117" height="83" viewBox="0 0 117 83" fill="none" xmlns="http://www.w3.org/2000/svg">
<g clip-path="url(#clip0_112_1224)">
<path d="M58.0693 47.5435C59.7715 47.5435 61.3491 46.8633 62.999 45.375L111.218 2.60303C108.793 0.845215 105.812 0.0185547 101.764 0.0185547H14.3936C10.3608 0.0185547 7.36378 0.845215 4.90528 2.60303L53.1245 45.375C54.8232 46.8633 56.4009 47.5435 58.0693 47.5435ZM1.61767 75.8491L38.0835 39.4624L1.52002 7.01417C0.695312 8.32716 0 10.9688 0 14.2925V68.2593C0 71.4902 0.579101 73.918 1.61767 75.8491ZM13.4282 82.5332H102.729C106.505 82.5332 109.167 81.6089 110.978 80.2788L73.8648 43.1509L66.4785 49.7407C63.7525 52.1401 60.979 53.3189 58.0693 53.3189C55.1782 53.3189 52.4048 52.1401 49.6938 49.7407L42.2925 43.1509L5.17969 80.2788C7.00489 81.6089 9.63331 82.5332 13.4282 82.5332ZM114.54 75.8491C115.56 73.918 116.157 71.4902 116.157 68.2593V14.2925C116.157 10.9688 115.462 8.32716 114.652 7.01417L78.0889 39.4624L114.54 75.8491Z" fill="white"/>
</g>
<defs>
<clipPath id="clip0_112_1224">
<rect width="116.157" height="82.5332" fill="white"/>
</clipPath>
</defs>
</svg>
