<svg width="90" height="90" viewBox="0 0 90 90" fill="none" xmlns="http://www.w3.org/2000/svg">
<g clip-path="url(#clip0_112_1206)">
<path d="M24.5913 64.6968C38.7046 78.874 55.6348 89.6299 69.2261 89.6299C75.5991 89.6299 81.1572 87.0723 84.8228 82.9976C88.3115 79.0693 89.5322 76.1514 89.5322 73.5298C89.5322 71.5244 88.2627 69.6353 85.1157 67.4346L73.3833 59.041C70.4653 56.9717 69.1621 56.5811 67.4346 56.5811C65.9512 56.5811 64.6665 56.8589 62.2031 58.2109L54.542 62.4321C53.6445 62.9541 53.2388 63.0366 52.5703 63.0366C51.6577 63.0366 51.023 62.8076 50.1255 62.4321C46.46 60.7232 41.3413 56.7275 36.7783 52.1343C32.2153 47.5713 28.708 42.9863 26.8223 39.2788C26.5781 38.8057 26.3003 38.0396 26.3003 37.2583C26.3003 36.6538 26.627 36.1016 27.0176 35.4482L31.5166 27.7534C32.771 25.6655 33.0977 24.5088 33.0977 22.8638C33.0977 20.9897 32.4629 18.9844 30.6865 16.4419L22.6196 5.16748C20.3213 1.95654 18.5938 0 15.9873 0C12.7612 0 8.88184 2.45996 6.11035 5.13379C2.11816 8.99463 0 14.3574 0 20.4038C0 34.0928 10.5269 50.666 24.5913 64.6968Z" fill="white"/>
</g>
<defs>
<clipPath id="clip0_112_1206">
<rect width="89.5322" height="89.6787" fill="white"/>
</clipPath>
</defs>
</svg>
