<svg width="85" height="103" viewBox="0 0 85 103" fill="none" xmlns="http://www.w3.org/2000/svg">
<g clip-path="url(#clip0_112_1233)">
<path d="M14.3936 102.405H70.6113C80.1353 102.405 85.0049 97.5391 85.0049 88.1465V39.4234C85.0049 30.0308 80.1353 25.1494 70.6113 25.1494H14.3936C4.86963 25.1494 0 29.9517 0 39.4234V88.1465C0 97.603 4.86963 102.405 14.3936 102.405ZM42.542 0.70166C44.1572 0.70166 45.5064 2.01709 45.5064 3.59864V55.0127L45.3042 62.125L48.417 58.9111L57.0601 49.9312C57.5923 49.3315 58.3569 49.0015 59.1065 49.0015C60.624 49.0015 61.8535 50.1299 61.8535 51.6626C61.8535 52.4795 61.52 53.0791 60.939 53.645L44.6743 69.5508C43.94 70.2852 43.2915 70.5176 42.542 70.5176C41.7588 70.5176 41.1104 70.2852 40.376 69.5508L24.0811 53.645C23.5151 53.0791 23.1816 52.4795 23.1816 51.6626C23.1816 50.1299 24.3135 49.0015 25.8799 49.0015C26.6294 49.0015 27.4429 49.3315 27.9751 49.9312L36.6182 58.9111L39.7461 62.1401L39.5439 55.0127V3.59864C39.5439 2.01709 40.9268 0.70166 42.542 0.70166Z" fill="white"/>
</g>
<defs>
<clipPath id="clip0_112_1233">
<rect width="85.0049" height="102.405" fill="white"/>
</clipPath>
</defs>
</svg>
